<?xml version="1.0" encoding="UTF-8"?>
<!DOCTYPE svg PUBLIC "-//W3C//DTD SVG 1.1//EN" "http://www.w3.org/Graphics/SVG/1.1/DTD/svg11.dtd">
<!-- Creator: CorelDRAW X6 -->
<svg xmlns="http://www.w3.org/2000/svg" xml:space="preserve" width="46.8751mm" height="6.2682mm" version="1.1" style="shape-rendering:geometricPrecision; text-rendering:geometricPrecision; image-rendering:optimizeQuality; fill-rule:evenodd; clip-rule:evenodd"
viewBox="0 0 3613 483"
 xmlns:xlink="http://www.w3.org/1999/xlink">
 <defs>
  <style type="text/css">
   <![CDATA[
    .fil0 {fill:#2B2A29;fill-rule:nonzero}
   ]]>
  </style>
 </defs>
 <g id="Слой_x0020_1">
  <metadata id="CorelCorpID_0Corel-Layer"/>
  <path class="fil0" d="M1083 391l0 -379 -92 0 0 420c0,28 23,51 51,51l420 0 0 -92 -379 0zm1026 -293c-59,-129 -242,-129 -301,0l-175 386 109 0 157 -347c23,-51 96,-51 119,0l157 347 109 0 -175 -386zm755 123c15,-21 24,-47 24,-76 0,-73 -59,-132 -132,-132l-296 0c-20,0 -37,16 -37,37l0 71 92 0 0 -27 227 0c29,0 53,24 53,53 0,29 -24,53 -53,53l-133 0 -94 0 -92 0 0 283 369 0c78,0 141,-63 141,-141 0,-52 -28,-97 -69,-121zm-86 182l0 0 -263 0 0 -126 263 0c35,0 63,28 63,63 0,35 -28,63 -63,63zm767 -182c-29,-16 -75,-19 -102,-19l-194 0c-29,0 -53,-24 -53,-53l0 -54 227 0c20,0 37,11 46,27l97 0c-11,-62 -65,-109 -130,-109l-296 0c-20,0 -37,16 -37,37l0 100c0,71 57,128 128,128l27 0 146 0 54 0c35,0 64,29 63,65 -1,34 -31,61 -65,61l-197 0c-27,0 -51,-18 -59,-42l-94 0c9,69 68,123 140,123l228 0c78,0 141,-63 141,-141 0,-52 -27,-98 -69,-121zm-3080 -117c5,-9 7,-19 7,-29 0,-35 -28,-63 -63,-63l-408 0 0 92 350 0 114 0zm-181 37l-265 234c-12,12 -19,28 -19,45 0,35 28,63 63,63l408 0 0 -92 -327 0 280 -249 -142 0zm387 342l108 0 0 -94 -108 0 0 94zm1289 -204l-85 204 170 0 -85 -204z"/>
 </g>
</svg>
